<svg width="50" height="53" viewBox="0 0 50 53" fill="none" xmlns="http://www.w3.org/2000/svg">
<path d="M25 0C28.3152 0 31.4946 1.39598 33.8388 3.88083C36.183 6.36569 37.5 9.73588 37.5 13.25C37.5 16.7641 36.183 20.1343 33.8388 22.6192C31.4946 25.104 28.3152 26.5 25 26.5C21.6848 26.5 18.5054 25.104 16.1612 22.6192C13.817 20.1343 12.5 16.7641 12.5 13.25C12.5 9.73588 13.817 6.36569 16.1612 3.88083C18.5054 1.39598 21.6848 0 25 0ZM25 33.125C38.8125 33.125 50 39.0544 50 46.375V53H0V46.375C0 39.0544 11.1875 33.125 25 33.125Z" fill="#585858"/>
</svg>
